<?xml version="1.0" encoding="UTF-8" standalone="no"?> <svg width="64" height="64" viewBox="0 0 64 64" fill="none" xmlns="http://www.w3.org/2000/svg">
<path d="M46 58C46.2652 58 46.5196 57.8946 46.7071 57.7071C46.8946 57.5196 47 57.2652 47 57C47 56.7348 46.8946 56.4804 46.7071 56.2929C46.5196 56.1054 46.2652 56 46 56H31V53H33C33.2652 53 33.5196 52.8946 33.7071 52.7071C33.8946 52.5196 34 52.2652 34 52C34 51.7348 33.8946 51.4804 33.7071 51.2929C33.5196 51.1054 33.2652 51 33 51H10C9.73478 51 9.48043 50.8946 9.29289 50.7071C9.10536 50.5196 9 50.2652 9 50C9 49.7348 9.10536 49.4804 9.29289 49.2929C9.48043 49.1054 9.73478 49 10 49H42C42.2652 49 42.5196 49.1054 42.7071 49.2929C42.8946 49.4804 43 49.7348 43 50C43 50.2652 42.8946 50.5196 42.7071 50.7071C42.5196 50.8946 42.2652 51 42 51H37C36.7348 51 36.4804 51.1054 36.2929 51.2929C36.1054 51.4804 36 51.7348 36 52C36 52.2652 36.1054 52.5196 36.2929 52.7071C36.4804 52.8946 36.7348 53 37 53H42C42.7107 53.0018 43.3988 52.7505 43.9412 52.2912C44.4835 51.8319 44.8446 51.1945 44.9599 50.4932C45.0752 49.7919 44.937 49.0725 44.5702 48.4638C44.2034 47.8551 43.6319 47.3968 42.958 47.171C42.7673 43.3355 41.2841 39.6774 38.7497 36.7922C36.2153 33.907 32.7789 31.9646 29 31.281V29H33C33.2652 29 33.5196 28.8946 33.7071 28.7071C33.8946 28.5196 34 28.2652 34 28C34 27.7348 33.8946 27.4804 33.7071 27.2929C33.5196 27.1054 33.2652 27 33 27H20V25H33C33.2652 25 33.5196 24.8946 33.7071 24.7071C33.8946 24.5196 34 24.2652 34 24C34 23.7348 33.8946 23.4804 33.7071 23.2929C33.5196 23.1054 33.2652 23 33 23H19C18.7348 23 18.4804 23.1054 18.2929 23.2929C18.1054 23.4804 18 23.7348 18 24V28C18 28.2652 18.1054 28.5196 18.2929 28.7071C18.4804 28.8946 18.7348 29 19 29H23V31.271C20.2959 31.7537 17.7507 32.89 15.586 34.581C15.3765 34.7437 15.2402 34.983 15.2071 35.2462C15.174 35.5094 15.2468 35.775 15.4095 35.9845C15.5722 36.194 15.8115 36.3303 16.0747 36.3634C16.3379 36.3965 16.6035 36.3237 16.813 36.161C19.4341 34.1068 22.6698 32.9934 26 33C29.8016 33.0061 33.4592 34.4548 36.234 37.0534C39.0088 39.6521 40.6939 43.207 40.949 47H11.041C11.2337 44.0193 12.321 41.166 14.161 38.813C14.2463 38.7098 14.31 38.5905 14.3483 38.4622C14.3866 38.334 14.3988 38.1993 14.3841 38.0662C14.3694 37.9332 14.3281 37.8044 14.2627 37.6876C14.1973 37.5708 14.1091 37.4683 14.0034 37.3862C13.8976 37.3041 13.7765 37.244 13.6471 37.2096C13.5177 37.1752 13.3828 37.1671 13.2502 37.1859C13.1176 37.2046 12.9902 37.2498 12.8754 37.3187C12.7606 37.3876 12.6609 37.4788 12.582 37.587C10.4327 40.3368 9.19263 43.6875 9.034 47.174C8.36167 47.4016 7.79215 47.8608 7.42719 48.4696C7.06223 49.0784 6.9256 49.7972 7.04171 50.4974C7.15782 51.1977 7.5191 51.8338 8.06102 52.2923C8.60293 52.7507 9.29019 53.0016 10 53H21V56H6C5.73478 56 5.48043 56.1054 5.29289 56.2929C5.10536 56.4804 5 56.7348 5 57V61C5 61.2652 5.10536 61.5196 5.29289 61.7071C5.48043 61.8946 5.73478 62 6 62H46C46.2652 62 46.5196 61.8946 46.7071 61.7071C46.8946 61.5196 47 61.2652 47 61C47 60.7348 46.8946 60.4804 46.7071 60.2929C46.5196 60.1054 46.2652 60 46 60H7V58H46ZM25 31.041V29H27V31.051C26.667 31.031 26.338 31 26 31C25.662 31 25.332 31.022 25 31.041ZM23 53H29V56H23V53Z" fill="black"/>
<path d="M29.652 6.789H39.81C43.2327 6.79375 46.5765 5.76064 49.4 3.826C49.5085 3.75194 49.6013 3.65723 49.6732 3.54729C49.745 3.43736 49.7946 3.31434 49.8189 3.18526C49.8432 3.05619 49.8419 2.92359 49.815 2.79503C49.788 2.66647 49.7361 2.54447 49.662 2.436C49.5879 2.32753 49.4932 2.23471 49.3833 2.16284C49.2734 2.09097 49.1503 2.04145 49.0213 2.01712C48.8922 1.9928 48.7596 1.99413 48.631 2.02104C48.5025 2.04796 48.3805 2.09994 48.272 2.174C45.7805 3.88105 42.8302 4.7928 39.81 4.789H29.652C29.3868 4.789 29.1324 4.89436 28.9449 5.0819C28.7574 5.26943 28.652 5.52379 28.652 5.789C28.652 6.05422 28.7574 6.30857 28.9449 6.49611C29.1324 6.68365 29.3868 6.789 29.652 6.789Z" fill="black"/>
<path d="M61.792 9.18C61.6299 8.97033 61.3911 8.8336 61.1283 8.79984C60.8654 8.76609 60.5998 8.83809 60.39 9L52.616 14.98C50.5867 16.5256 48.261 17.6369 45.7836 18.2449C43.3063 18.8529 40.7303 18.9445 38.216 18.514L30.038 17.071C29.7704 17.0237 29.5153 16.9224 29.2882 16.7733C29.061 16.6242 28.8667 16.4303 28.7169 16.2036C28.5672 15.9768 28.4653 15.722 28.4173 15.4545C28.3693 15.1871 28.3764 14.9126 28.438 14.648C28.5859 14.1355 28.9213 13.6976 29.3776 13.4213C29.8338 13.145 30.3773 13.0506 30.9 13.157L37.582 14.335C37.8399 14.3737 38.1027 14.3101 38.3143 14.1577C38.526 14.0054 38.6698 13.7764 38.7151 13.5196C38.7603 13.2628 38.7035 12.9985 38.5566 12.783C38.4098 12.5674 38.1846 12.4178 37.929 12.366L31.248 11.188C30.3967 11.0263 29.5161 11.1364 28.7309 11.5029C27.9457 11.8694 27.2957 12.4736 26.873 13.23L24.532 13.03C24.1175 12.9934 23.6999 13.0437 23.3059 13.1776C22.912 13.3116 22.5503 13.5263 22.244 13.808L16.318 19.239C16.1179 19.4234 15.8823 19.5651 15.6256 19.6553C15.3688 19.7455 15.0964 19.7824 14.8249 19.7637C14.5534 19.7449 14.2886 19.671 14.0467 19.5464C13.8048 19.4218 13.5909 19.2491 13.418 19.039C13.1017 18.61 12.959 18.0775 13.0183 17.5478C13.0776 17.0182 13.3347 16.5304 13.738 16.182L22.538 8.112C23.4594 7.26222 24.6666 6.78996 25.92 6.789C26.1852 6.789 26.4396 6.68365 26.6271 6.49611C26.8146 6.30857 26.92 6.05422 26.92 5.789C26.92 5.52379 26.8146 5.26943 26.6271 5.0819C26.4396 4.89436 26.1852 4.789 25.92 4.789C24.1686 4.7875 22.4804 5.44384 21.19 6.628L12.39 14.698C11.6033 15.3893 11.1117 16.3561 11.0166 17.3991C10.9215 18.4421 11.2302 19.4818 11.879 20.304C12.2234 20.725 12.6507 21.0707 13.1342 21.3198C13.6177 21.5689 14.1473 21.716 14.69 21.752C14.781 21.759 14.873 21.762 14.964 21.762C15.9659 21.7609 16.9313 21.3857 17.671 20.71L23.596 15.278C23.6994 15.1861 23.8202 15.1158 23.9513 15.0713C24.0823 15.0268 24.221 15.009 24.359 15.019L26.4 15.2C26.4116 15.9505 26.6371 16.6822 27.05 17.309C27.3502 17.761 27.7389 18.1475 28.1926 18.445C28.6464 18.7425 29.1558 18.9449 29.69 19.04L37.869 20.483C39.0374 20.6891 40.2216 20.7929 41.408 20.793C45.902 20.7843 50.2686 19.2991 53.836 16.566L61.611 10.586C61.7155 10.5058 61.803 10.4057 61.8687 10.2915C61.9344 10.1773 61.9769 10.0513 61.9937 9.92062C62.0105 9.78997 62.0013 9.65729 61.9667 9.53019C61.9321 9.40309 61.8727 9.28409 61.792 9.18V9.18Z" fill="black"/>
<path d="M14 31C14.1634 31.0001 14.3244 30.9601 14.4687 30.8835C14.6131 30.807 14.7366 30.6962 14.8282 30.561C14.9199 30.4257 14.977 30.27 14.9946 30.1075C15.0121 29.9451 14.9896 29.7808 14.929 29.629L12.929 24.629C12.8306 24.3826 12.6384 24.1854 12.3946 24.0808C12.1508 23.9761 11.8754 23.9726 11.629 24.071C11.3826 24.1694 11.1854 24.3616 11.0808 24.6054C10.9761 24.8492 10.9726 25.1246 11.071 25.371L13.071 30.371C13.1452 30.5567 13.2734 30.7159 13.439 30.8281C13.6046 30.9402 13.8 31.0001 14 31Z" fill="black"/>
<path d="M10.445 34.832C10.5543 34.9049 10.6768 34.9555 10.8056 34.9811C10.9345 35.0066 11.0671 35.0065 11.1959 34.9808C11.3247 34.955 11.4471 34.9042 11.5563 34.8311C11.6654 34.7581 11.7591 34.6643 11.832 34.555C11.9049 34.4457 11.9555 34.3232 11.9811 34.1944C12.0066 34.0655 12.0065 33.9329 11.9808 33.8041C11.955 33.6753 11.9042 33.5529 11.8311 33.4437C11.7581 33.3346 11.6643 33.2409 11.555 33.168L5.555 29.168C5.44574 29.0951 5.3232 29.0445 5.19436 29.0189C5.06553 28.9934 4.93293 28.9935 4.80413 29.0192C4.54402 29.0712 4.3152 29.2243 4.168 29.445C4.09512 29.5543 4.04447 29.6768 4.01895 29.8056C3.99342 29.9345 3.99352 30.0671 4.01925 30.1959C4.07119 30.456 4.22434 30.6848 4.445 30.832L10.445 34.832Z" fill="black"/>
<path d="M9 38C9 37.7348 8.89464 37.4804 8.70711 37.2929C8.51957 37.1054 8.26522 37 8 37H3C2.73478 37 2.48043 37.1054 2.29289 37.2929C2.10536 37.4804 2 37.7348 2 38C2 38.2652 2.10536 38.5196 2.29289 38.7071C2.48043 38.8946 2.73478 39 3 39H8C8.26522 39 8.51957 38.8946 8.70711 38.7071C8.89464 38.5196 9 38.2652 9 38Z" fill="black"/>
<path d="M41.372 24.071C41.25 24.0222 41.1196 23.998 40.9882 23.9997C40.8569 24.0013 40.7271 24.0288 40.6064 24.0806C40.4857 24.1325 40.3763 24.2076 40.2846 24.3017C40.1929 24.3958 40.1207 24.507 40.072 24.629L38.072 29.629C38.0233 29.751 37.9991 29.8814 38.0008 30.0128C38.0024 30.1441 38.03 30.2739 38.0818 30.3946C38.1336 30.5153 38.2087 30.6246 38.3027 30.7163C38.3968 30.808 38.508 30.8803 38.63 30.929C38.752 30.9777 38.8824 31.002 39.0138 31.0003C39.1451 30.9986 39.2749 30.9711 39.3956 30.9193C39.5163 30.8674 39.6256 30.7924 39.7173 30.6983C39.809 30.6042 39.8813 30.493 39.93 30.371L41.93 25.371C41.9788 25.249 42.003 25.1186 42.0014 24.9872C41.9997 24.8559 41.9722 24.7261 41.9204 24.6054C41.8686 24.4847 41.7935 24.3753 41.6994 24.2836C41.6053 24.192 41.494 24.1197 41.372 24.071V24.071Z" fill="black"/>
<path d="M41.168 34.555C41.2409 34.6643 41.3345 34.7581 41.4437 34.8312C41.5528 34.9042 41.6753 34.9551 41.8041 34.9808C41.9329 35.0065 42.0655 35.0066 42.1944 34.9811C42.3232 34.9556 42.4457 34.9049 42.555 34.832L48.555 30.832C48.6642 30.7591 48.7581 30.6654 48.8311 30.5563C48.9042 30.4471 48.955 30.3247 48.9807 30.1959C49.0065 30.0671 49.0066 29.9345 48.981 29.8056C48.9555 29.6768 48.9049 29.5543 48.832 29.445C48.7591 29.3357 48.6654 29.2419 48.5563 29.1689C48.4471 29.0958 48.3247 29.045 48.1959 29.0192C48.0671 28.9935 47.9345 28.9934 47.8056 29.0189C47.6768 29.0445 47.5542 29.0951 47.445 29.168L41.445 33.168C41.3357 33.2409 41.2419 33.3346 41.1688 33.4437C41.0957 33.5529 41.0449 33.6753 41.0192 33.8041C40.9935 33.9329 40.9934 34.0655 41.0189 34.1944C41.0444 34.3232 41.0951 34.4457 41.168 34.555Z" fill="black"/>
<path d="M50 37H45C44.7348 37 44.4804 37.1054 44.2929 37.2929C44.1054 37.4804 44 37.7348 44 38C44 38.2652 44.1054 38.5196 44.2929 38.7071C44.4804 38.8946 44.7348 39 45 39H50C50.2652 39 50.5196 38.8946 50.7071 38.7071C50.8946 38.5196 51 38.2652 51 38C51 37.7348 50.8946 37.4804 50.7071 37.2929C50.5196 37.1054 50.2652 37 50 37Z" fill="black"/>
</svg>
