<?xml version="1.0" encoding="utf-8"?>
<!-- Generator: Adobe Illustrator 23.0.2, SVG Export Plug-In . SVG Version: 6.00 Build 0)  -->
<svg version="1.1" id="Layer_1" xmlns="http://www.w3.org/2000/svg" xmlns:xlink="http://www.w3.org/1999/xlink" x="0px" y="0px"
	 viewBox="0 0 281.9669 233.4991" enable-background="new 0 0 281.9669 233.4991" xml:space="preserve">
<g>
	<path d="M224.0276,44.4068c12.0996,2.8184,24.1934-4.707,27.0118-16.8066c2.8164-12.0996-4.709-24.1924-16.8086-27.0088
		c-12.0996-2.8184-24.1934,4.708-27.0098,16.8057C204.4026,29.4967,211.93,41.5904,224.0276,44.4068z"/>
	<path d="M209.2923,57.7266c4.2192,0,8.0063,2.6714,9.4214,6.65c1.8403,5.163-0.8555,10.8862-6.0147,12.7548
		c-0.2309,0.0923-0.4761,0.1963-0.813,0.3496c-0.684,0.3101-1.7871,0.8477-3.1538,1.648c-2.518,1.4726-6.3252,4.0688-10.1709,8.082
		c-6.2002,6.5518-10.456,14.3169-12.8506,23.4595c0.1656,4.1494,0.524,8.5483,1.0884,13.3955
		c1.0894,5.6055,3.1387,9.4561,5.732,12.0938c0.0244,0.1123,0.06,0.2851,0.1093,0.5463c0.2837,1.4932,0.8731,5.2788,0.8731,10.7022
		c-0.0777,14.0967-3.7144,38.7363-27.2281,65.2851c-4.5874,5.1607-4.1225,13.0606,1.0381,17.648
		c2.3814,2.1167,5.3472,3.1577,8.3008,3.1577c3.4468,0.0005,6.8775-1.417,9.3467-4.1958
		c22.1387-24.834,30.2573-49.8135,32.6689-68.4004c2.7466,6.396,4.8702,14.9883,4.899,26.7046c0,8.3862-1.126,18.376-4.045,30.1953
		c-1.6557,6.7017,2.4341,13.4771,9.1377,15.1333c1.0069,0.2486,2.0152,0.3677,3.0079,0.3677c5.6142,0,10.7182-3.8106,12.1259-9.5054
		c3.3448-13.5473,4.7735-25.5591,4.7735-36.1909c0.0551-23.5264-7.187-40.25-14.9556-50.688
		c-3.5518-4.8047-7.126-8.2944-10.0811-10.7392c-1.7988-14.2408,1.2232-30.377,3.8545-43.3926
		c0.9776,0.7256,2.003,1.4233,3.084,2.0791c4.1655,2.5229,9.27,4.4531,15.0391,4.4531c0.0459,0.0005,0.0913,0.0005,0.1372,0.0005
		c6.3594,0,13.0762-2.5532,19.0752-7.6152c6.0937-5.1031,11.77-12.6153,17.3642-23.3018c2.0455-3.9165,0.5284-8.75-3.3881-10.7935
		c-3.9165-2.0458-8.75-0.5283-10.7955,3.3882c-4.9238,9.4507-9.6035,15.2486-13.4291,18.4209
		c-3.8775,3.1783-6.5933,3.8648-8.9639,3.9019c-2.1465,0-4.377-0.7114-6.7617-2.1465c-3.5572-2.1172-7.0786-5.8735-9.4942-9.1094
		c-0.1738-0.2304-0.3305-0.4502-0.4936-0.6738c-1.5498-4.9302-4.7442-8.8594-9.3042-9.9961
		c-7.7705-1.9375-18.7227,1.7344-24.4214,13.4561c5.5854-3.9512,10.1348-5.8702,11.8559-6.5142
		C207.0228,57.9224,208.1502,57.7266,209.2923,57.7266z"/>
	<path d="M21.7229,182.9c-0.082,0.1758-0.1718,0.3848-0.2597,0.5849c-1.836,2.7647-3.2754,6.4083-4.2129,11.2627
		c-0.1309,0.709-5.9658,37.9532,3.2012,37.9532c9.166,0,11.6836-28.1739,16.7988-31.7813
		c0.7226,0.0645,21.0679,14.3106,32.6816,12.5196c2.4566-0.3809,5.6963-1.7876,8.5625-3.3721l9.2315,20.4409
		c0.8271,1.833,2.6377,2.9429,4.5556,2.9429c0.5142,0.0005,1.0357-0.0796,1.5489-0.2466c2.4233-0.7876,3.8657-3.2754,3.3476-5.771
		l-7.0249-33.8438c-0.1577-0.7617-0.4946-1.4345-0.9389-2.0127c0.0127-0.0732,0.0273-0.1543,0.04-0.2255
		c-2.4839-1.8482-4.6226-3.6768-6.4722-5.4161c-3.0473-1.9575-6.4033-4.6181-9.832-8.2211
		c-20.0835,6.2592-25.3604-10.1998-42.8853-0.8306c-7.1972-2.1143-15.7773-6.6611-22.2793-16.3643
		c-1.3125-1.9511-3.9589-2.4619-5.9033-1.1484c-1.9541,1.3105-2.4707,3.9541-1.1513,5.9062
		C6.9144,174.4127,14.553,179.7652,21.7229,182.9z"/>
	<path d="M93.9515,186.7945c2.186-3.145,6.227-8.2119,8.2168-8.8232c4.3281-1.3369,11.0879,0.3047,13.3027-3.1065
		c1.5488-2.3838,1.9297-3.2988,1.457-7.4316c-0.4726-4.084-9.7168-4.9932-13.0761-5.7324
		c-4.7637-1.0498-8.1973-5.8526-8.4649-6.0313c-0.2187-0.1484-3.6699-4.5263,1.1152-9.8984c1.6758-1.875-2.9687-2.586-6.6503-0.1758
		c-4.3809,2.8682-4.7149,6.3418-3.8575,10.4434c-6.7319,3.3261-10.2881,11.7578-11.2114,17.7617
		C82.7215,182.585,90.1902,185.7081,93.9515,186.7945z M95.8675,162.023c1.7773-0.25,3.4219,0.9903,3.6699,2.7666
		c0.25,1.7793-0.9883,3.4219-2.7676,3.6709c-1.7754,0.2481-3.4199-0.9882-3.6679-2.7675
		C92.8519,163.9156,94.0901,162.273,95.8675,162.023z"/>
	<path d="M183.4134,131.2984c0.9638-0.1079,1.5273-0.1386,1.5288-0.1421c1.1015-0.063,1.9468-1.0078,1.8838-2.1108
		c-0.063-1.103-1.0078-1.9463-2.1114-1.8833c-0.0268,0.0024-0.4926,0.0293-1.2753,0.1089
		c-0.0264,0.8638-0.0503,1.7295-0.0533,2.6123C183.386,130.3551,183.4061,130.8253,183.4134,131.2984z"/>
	<path d="M93.5437,190.6422c-0.018,0.0615-0.0224,0.1235-0.0341,0.1855c-0.1905,1.0015,0.3965,2.0025,1.3974,2.2935
		c9.8741,2.873,18.314,4.147,25.5635,4.147c0.0176,0,0.0376,0,0.0552,0c11.1562,0,19.5161-3.0777,25.6264-7.918
		c9.1915-7.2798,13.1758-18.1904,15.2422-27.8819c1.0323-4.854,1.5826-9.4394,2.0235-13.1635
		c0.4228-3.6958,0.8169-6.6563,1.2514-7.7271c0.1343-0.3779,0.313-0.7407,0.5147-1.0952c-0.8706-1.2871-1.4487-2.7895-1.6416-4.4214
		c-1.0835,1.166-1.9893,2.5156-2.6133,4.0987c-0.9731,2.6899-1.2148,7.04-1.9687,12.6127
		c-1.0772,8.2857-3.0743,18.8082-8.5621,27.0552c-5.518,8.2207-14.2324,14.3867-29.9277,14.4395
		c-6.7134,0.0024-14.7056-1.1768-24.1777-3.9116c-0.0908-0.0264-0.1773-0.0479-0.2686-0.0743
		C94.9617,188.9723,93.8523,189.5816,93.5437,190.6422z"/>
	<path d="M165.47,134.1798c0.167,4.3095,3.7149,7.688,7.9903,7.688c0.1049,0,0.2099-0.002,0.3159-0.0059
		c4.4135-0.1714,7.8535-3.8892,7.6821-8.3047c-0.0488-1.2505-0.0713-2.477-0.0713-3.6806
		c0.0693-22.7159,8.0108-35.8907,15.7295-44.0484c3.8789-4.0478,7.7617-6.7617,10.606-8.4248
		c1.4218-0.8325,2.581-1.4018,3.3359-1.7446c0.3774-0.1714,0.6548-0.2876,0.814-0.3506c0.0796-0.0327,0.1289-0.0513,0.1469-0.0571
		l-0.0005-0.0015c4.1348-1.4971,6.2881-6.0566,4.8101-10.2026c-1.4814-4.1626-6.0581-6.3355-10.2187-4.8545h-0.002
		c-0.7466,0.2817-10.8242,3.9321-21.0444,14.5644c-10.2329,10.5757-20.2451,28.4741-20.1758,55.1197
		C165.388,131.2804,165.4129,132.7144,165.47,134.1798z"/>
</g>
</svg>
