<svg id="Ebene_1" xmlns="http://www.w3.org/2000/svg" viewBox="0 0 1713.4 780.9" width="2500" height="1139"><style>.st0{fill:none}.st1{fill:#ffffff}</style><path id="XMLID_69_" class="st1" d="M1365.7 27.2h61.2v409.5h-61.2z"/><path id="XMLID_87_" class="st1" d="M586.2 166.6c-77.1 0-139.9 58.6-139.9 139.3 0 80.2 62.8 139.3 139.9 139.3s139.9-59.1 139.9-139.3c0-80.8-62.8-139.3-139.9-139.3zm0 223.7c-42.2 0-78.6-34.8-78.6-84.4 0-50.1 36.4-84.4 78.6-84.4s78.6 34.3 78.6 84.4c0 49.6-36.4 84.4-78.6 84.4z"/><path id="XMLID_88_" class="st1" d="M223.1 209.3v59.1h141.4c-4.2 33.2-15.3 57.5-32.2 74.4-20.6 20.6-52.8 43.3-109.2 43.3C136 386.1 68 315.9 68 228.8S136 71.6 223.1 71.6c47 0 81.3 18.5 106.6 42.2l41.7-41.7C336 38.3 289.1 12.5 223.1 12.5 103.8 12.5 3.6 109.6 3.6 228.9s100.3 216.4 219.5 216.4c64.4 0 112.9-21.1 150.9-60.7 39.1-39.1 51.2-93.9 51.2-138.3 0-13.7-1.1-26.4-3.2-36.9H223.1v-.1z"/><path id="XMLID_91_" class="st1" d="M1594.7 390.3c-31.1 0-53.3-14.2-67.6-42.2l186.3-77.1-6.3-15.8c-11.6-31.1-47-88.7-119.3-88.7-71.8 0-131.4 56.5-131.4 139.3 0 78.1 59.1 139.3 138.3 139.3 63.9 0 100.8-39.1 116.1-61.7l-47.5-31.7c-15.8 23.3-37.4 38.6-68.6 38.6zm-4.7-169.9c24.3 0 44.9 12.1 51.7 29.6l-124.5 51.7c-1.6-53.9 41.6-81.3 72.8-81.3z"/><path id="XMLID_94_" class="st1" d="M1265.4 197.7h-2.1c-13.7-16.4-40.1-31.1-73.4-31.1-69.7 0-133.5 61.2-133.5 139.9 0 78.1 63.9 138.8 133.5 138.8 33.2 0 59.6-14.8 73.4-31.7h2.1v20.1c0 53.3-28.5 81.8-74.4 81.8-37.5 0-60.7-26.9-70.2-49.6l-53.3 22.2c15.3 36.9 55.9 82.3 123.5 82.3 71.8 0 132.5-42.2 132.5-145.1V175h-58.1v22.7zm-70.2 192.6c-42.2 0-77.6-35.4-77.6-83.9 0-49.1 35.4-85 77.6-85 41.7 0 74.4 35.9 74.4 85 0 48.6-32.7 83.9-74.4 83.9z"/><path id="XMLID_97_" class="st1" d="M891.2 166.6c-77.1 0-139.9 58.6-139.9 139.3 0 80.2 62.8 139.3 139.9 139.3s139.9-59.1 139.9-139.3c0-80.8-62.8-139.3-139.9-139.3zm0 223.7c-42.2 0-78.6-34.8-78.6-84.4 0-50.1 36.4-84.4 78.6-84.4 42.2 0 78.6 34.3 78.6 84.4.1 49.6-36.3 84.4-78.6 84.4z"/></svg>