<?xml version="1.0" encoding="UTF-8" standalone="no"?> <svg xmlns="http://www.w3.org/2000/svg" viewBox="0 0 64 64"><g id="car-parking-vehicle-garage"><path d="M50,40a1,1,0,0,0,1-1V35a1,1,0,0,0-1-1H47.9A5.017,5.017,0,0,0,43,30H21a5.017,5.017,0,0,0-4.9,4H14a1,1,0,0,0-1,1v4a1,1,0,0,0,1,1h2v1a3.009,3.009,0,0,0-3,3V55a1,1,0,0,0,1,1h1v4a2.006,2.006,0,0,0,2,2h5a2.006,2.006,0,0,0,2-2V56H40v4a2.006,2.006,0,0,0,2,2h5a2.006,2.006,0,0,0,2-2V56h1a1,1,0,0,0,1-1V44a3.009,3.009,0,0,0-3-3V40Zm-2-4h1v2H48ZM18,35a3.009,3.009,0,0,1,3-3H43a3.009,3.009,0,0,1,3,3v6H36.39l.33-1H43V38H36a1.014,1.014,0,0,0-.95.68L34.28,41H24.39l.33-1H31V38H24a1.014,1.014,0,0,0-.95.68L22.28,41H18Zm-3,3V36h1v2Zm0,9h5v2H15Zm7,13H17V56h5Zm25,0H42V56h5Zm2-6H15V51H49ZM22,49V47H42v2Zm27,0H44V47h5Zm0-5v1H15V44a1,1,0,0,1,1-1H48A1,1,0,0,1,49,44Z"/><path d="M62,20V61a1,1,0,0,1-1,1H51V60h9V20.57L32,4.16,4,20.57V60h9v2H3a1,1,0,0,1-1-1V20a1.012,1.012,0,0,1,.49-.86l29-17a.984.984,0,0,1,1.02,0l29,17A1.012,1.012,0,0,1,62,20Z"/><path d="M41,11H23a1,1,0,0,0-1,1V27a1,1,0,0,0,1,1H41a1,1,0,0,0,1-1V12A1,1,0,0,0,41,11ZM40,26H24V13H40Z"/><path d="M33.5,14H28a1,1,0,0,0-1,1V25h2V21h4.5a3.5,3.5,0,0,0,0-7Zm0,5H29V16h4.5a1.5,1.5,0,0,1,0,3Z"/></g></svg>